# xmcd
#
# Track frame offsets:
#	150
#	10026
#	20882
#	34916
#	43374
#	55760
#	66850
#	77001
#	87676
#	98522
#	111481
#	127205
#	138757
#	160806
#
# Disc length: 2266 seconds
#
# Revision: 0
# Processed by: cddbd v1.5.2PL0 Copyright (c) Steve Scherf et al.
# Submitted via: dBpowerAMP V4.0
#
DISCID=c108d80e
DTITLE=Marty Robbins - Marty Robbins Singing His Hits (Time Life)
DYEAR=2007
DGENRE=Country
TTITLE0=Singing The Blues
TTITLE1=Begging To You
TTITLE2=The Cowboy In The Continental Suit
TTITLE3=No Tears Milady
TTITLE4=Tonight Carmen
TTITLE5=Red River Valley
TTITLE6=Ruby Ann
TTITLE7=The Shoe Goes On The Other Foot Tonight
TTITLE8=Running Gun
TTITLE9=Ribbon Of Darkness
TTITLE10=Don't Worry
TTITLE11=Devil Woman
TTITLE12=Medley
TTITLE13=El Paso
EXTD=
EXTT0=
EXTT1=
EXTT2=
EXTT3=
EXTT4=
EXTT5=
EXTT6=
EXTT7=
EXTT8=
EXTT9=
EXTT10=
EXTT11=
EXTT12=
EXTT13=
PLAYORDER=
